<?xml version="1.0" encoding="utf-8"?>
<!-- Generator: Adobe Illustrator 21.0.0, SVG Export Plug-In . SVG Version: 6.00 Build 0)  -->
<svg version="1.1" xmlns="http://www.w3.org/2000/svg" xmlns:xlink="http://www.w3.org/1999/xlink" x="0px" y="0px" width="800px"
	 height="520px" viewBox="0 0 800 520" style="enable-background:new 0 0 800 520;" xml:space="preserve">
<style type="text/css">
	.st0{fill:#EDEDED;}
	.st1{opacity:0.43;fill:#A8BCCC;enable-background:new    ;}
	.st2{fill:none;stroke:#2982CC;stroke-width:2;stroke-miterlimit:10;}
	.st3{fill:#2982CC;}
	.st4{fill:#17507D;}
	.st5{fill:#303030;}
	.st6{font-family:'Arial';}
	.st7{font-size:19px;}
	.st8{font-size:18px;}
	.st9{fill:none;stroke:#303030;stroke-width:2;stroke-miterlimit:10;}
</style>
<rect class="st0" width="800" height="520"/>
<path class="st1" d="M489.8,387.3H183.3c-8.3,0-15.1-6.8-15.1-15.1V147.8c0-8.3,6.8-15.1,15.1-15.1h306.5c8.3,0,15.1,6.8,15.1,15.1
	v224.4C504.9,380.5,498.1,387.3,489.8,387.3z"/>
<path class="st2" d="M435.3,343.1H237.8c-8.3,0-15.1-6.8-15.1-15.1V218.5c0-8.3,6.8-15.1,15.1-15.1h197.4c8.3,0,15.1,6.8,15.1,15.1
	V328C450.4,336.3,443.6,343.1,435.3,343.1z"/>
<ellipse class="st3" cx="336.6" cy="264.2" rx="86.9" ry="7.6"/>
<path class="st4" d="M423.4,264.3c0,0.1-0.1,0.2-0.1,0.3c0,0.1-0.1,0.1-0.1,0.2c-0.1,0.1-0.1,0.2-0.2,0.2c-0.1,0.1-0.2,0.1-0.3,0.2
	c-0.1,0.1-0.2,0.1-0.3,0.2c-0.1,0.1-0.2,0.1-0.4,0.2c-0.1,0.1-0.3,0.1-0.4,0.2c-0.2,0.1-0.3,0.1-0.5,0.2s-0.3,0.1-0.5,0.2
	s-0.4,0.1-0.6,0.2s-0.4,0.1-0.6,0.2s-0.5,0.1-0.7,0.2s-0.4,0.1-0.7,0.2c-0.3,0.1-0.5,0.1-0.8,0.2s-0.5,0.1-0.8,0.2s-0.6,0.1-0.9,0.2
	s-0.6,0.1-0.9,0.2s-0.6,0.1-0.9,0.2c-0.4,0.1-0.7,0.1-1.1,0.2c-0.3,0-0.6,0.1-1,0.1c-0.4,0.1-0.8,0.1-1.3,0.2c-0.3,0-0.7,0.1-1,0.1
	c-0.5,0.1-1,0.1-1.5,0.2c-0.3,0-0.7,0.1-1,0.1c-0.7,0.1-1.3,0.2-2,0.2c-0.3,0-0.6,0.1-0.8,0.1c-1,0.1-2.1,0.2-3.2,0.3
	c-0.2,0-0.4,0-0.6,0.1c-1,0.1-2,0.2-3.1,0.3c-0.4,0-0.7,0.1-1.1,0.1c-1.1,0.1-2.3,0.2-3.4,0.3c-0.2,0-0.3,0-0.5,0
	c-1.3,0.1-2.5,0.2-3.8,0.3c-0.5,0-1,0.1-1.5,0.1c-0.6,0-1.3,0.1-1.9,0.1s-1.3,0.1-1.9,0.1c-0.5,0-1,0.1-1.5,0.1
	c-1,0.1-2.1,0.1-3.1,0.2c-0.1,0-0.1,0-0.2,0c-1.1,0.1-2.3,0.1-3.4,0.2c-0.3,0-0.7,0-1,0c-0.8,0-1.6,0.1-2.4,0.1c-0.5,0-1,0-1.5,0.1
	c-0.7,0-1.4,0-2.1,0.1c-0.7,0-1.4,0-2.1,0.1c-0.6,0-1.3,0-1.9,0.1c-0.8,0-1.5,0-2.3,0.1c-0.6,0-1.3,0-2,0c-0.8,0-1.5,0-2.3,0.1
	c-0.6,0-1.3,0-1.9,0c-0.9,0-1.8,0-2.7,0c-0.7,0-1.4,0-2.2,0c-0.3,0-0.5,0-0.8,0c-1.2,0-2.5,0-3.8,0c-0.2,0-0.4,0-0.5,0
	c-1.3,0-2.6,0-3.9,0c-0.1,0-0.3,0-0.4,0c-1.4,0-2.8,0-4.2,0c-1.4,0-2.9,0-4.3,0c-0.2,0-0.3,0-0.5,0c-1.3,0-2.6,0-3.9,0
	c-0.2,0-0.4,0-0.6,0c-1.2,0-2.4,0-3.5,0c-0.2,0-0.4,0-0.6,0c-1.3,0-2.6,0-3.8-0.1c-0.3,0-0.6,0-1,0c-0.9,0-1.9,0-2.8-0.1
	c-0.5,0-1,0-1.5,0c-0.8,0-1.6,0-2.4-0.1c-0.5,0-1,0-1.6,0c-0.7,0-1.4,0-2.2-0.1c-0.6,0-1.2,0-1.8-0.1c-0.7,0-1.4,0-2.1-0.1
	c-0.6,0-1.2,0-1.7-0.1c-0.7,0-1.3-0.1-1.9-0.1s-1.3-0.1-1.9-0.1s-1.2-0.1-1.8-0.1c-0.7,0-1.4-0.1-2-0.1c-0.5,0-1.1-0.1-1.6-0.1
	c-0.7,0-1.4-0.1-2.1-0.1c-0.5,0-1-0.1-1.5-0.1c-0.8,0-1.6-0.1-2.3-0.1c-0.5,0-1-0.1-1.4-0.1c-0.9-0.1-1.7-0.1-2.5-0.2
	c-0.4,0-0.8-0.1-1.2-0.1c-1.3-0.1-2.6-0.2-3.8-0.3c-0.9-0.1-1.8-0.1-2.7-0.2c-0.3,0-0.5,0-0.8-0.1c-0.6-0.1-1.2-0.1-1.7-0.2
	c-0.5,0-0.9-0.1-1.4-0.1s-0.9-0.1-1.4-0.1c-0.4,0-0.9-0.1-1.3-0.1c-0.5,0-0.9-0.1-1.4-0.2c-0.3,0-0.6-0.1-0.9-0.1
	c-0.5-0.1-1-0.1-1.4-0.2c-0.3,0-0.5-0.1-0.8-0.1c-0.5-0.1-1-0.1-1.5-0.2c-0.2,0-0.4-0.1-0.5-0.1c-0.7-0.1-1.3-0.2-1.9-0.3
	c-0.1,0-0.3,0-0.4-0.1c-0.5-0.1-0.9-0.2-1.4-0.2c-0.2,0-0.4-0.1-0.6-0.1c-0.4-0.1-0.7-0.1-1-0.2c-0.2,0-0.4-0.1-0.6-0.1
	c-0.3-0.1-0.6-0.1-0.9-0.2c-0.2,0-0.3-0.1-0.5-0.1c-0.3-0.1-0.6-0.2-0.9-0.2c-0.1,0-0.3-0.1-0.4-0.1c-0.4-0.1-0.8-0.2-1.1-0.3
	c-0.1,0-0.1,0-0.1-0.1c-0.3-0.1-0.5-0.2-0.8-0.3c-0.1,0-0.2-0.1-0.3-0.1c-0.2-0.1-0.3-0.2-0.5-0.2c-0.1,0-0.2-0.1-0.2-0.1
	c-0.1-0.1-0.2-0.1-0.3-0.2c-0.1,0-0.1-0.1-0.2-0.1c-0.1-0.1-0.2-0.2-0.2-0.2l-0.1-0.1c-0.1-0.1-0.1-0.2-0.1-0.4l0,0l0,0v53.1
	c0,0.1,0,0.2,0.1,0.4l0.1,0.1c0.1,0.1,0.1,0.2,0.2,0.2c0,0,0.1,0.1,0.2,0.1c0.1,0.1,0.2,0.2,0.3,0.2s0.1,0.1,0.2,0.1
	c0.1,0.1,0.3,0.2,0.5,0.2c0.1,0,0.2,0.1,0.3,0.1c0.2,0.1,0.5,0.2,0.8,0.3c0,0,0.1,0,0.1,0.1c0.3,0.1,0.7,0.2,1.1,0.3
	c0.1,0,0.2,0.1,0.4,0.1c0.3,0.1,0.6,0.2,0.9,0.2c0.2,0,0.3,0.1,0.5,0.1c0.3,0.1,0.6,0.1,0.9,0.2c0.2,0,0.4,0.1,0.6,0.1
	c0.3,0.1,0.7,0.1,1.1,0.2c0.2,0,0.4,0.1,0.6,0.1c0.4,0.1,0.9,0.2,1.4,0.2c0.1,0,0.3,0,0.4,0.1c0.6,0.1,1.3,0.2,1.9,0.3
	c0.2,0,0.4,0.1,0.5,0.1c0.5,0.1,1,0.1,1.5,0.2c0.3,0,0.5,0.1,0.8,0.1c0.5,0.1,1,0.1,1.5,0.2c0.3,0,0.6,0.1,0.9,0.1
	c0.2,0,0.4,0,0.6,0.1c0.2,0,0.5,0.1,0.8,0.1c0.4,0,0.9,0.1,1.3,0.1c0.5,0,0.9,0.1,1.4,0.1s0.9,0.1,1.4,0.1c0.2,0,0.4,0,0.6,0.1
	c0.4,0,0.8,0.1,1.1,0.1c0.3,0,0.5,0,0.8,0.1c0.9,0.1,1.8,0.2,2.7,0.2l0,0c1.2,0.1,2.5,0.2,3.8,0.3c0.1,0,0.3,0,0.4,0
	c0.3,0,0.6,0,0.8,0.1c0.8,0.1,1.7,0.1,2.5,0.2c0.3,0,0.5,0,0.7,0s0.5,0,0.7,0c0.8,0,1.5,0.1,2.3,0.1c0.3,0,0.6,0,1,0.1
	c0.2,0,0.3,0,0.5,0c0.7,0,1.4,0.1,2.1,0.1c0.4,0,0.8,0,1.2,0.1c0.1,0,0.3,0,0.4,0c0.7,0,1.3,0.1,2,0.1c0.5,0,0.9,0,1.4,0.1
	c0.1,0,0.3,0,0.4,0c0.6,0,1.2,0.1,1.9,0.1c0.5,0,1,0,1.6,0.1c0.1,0,0.3,0,0.4,0c0.6,0,1.1,0,1.7,0.1c0.5,0,1.1,0,1.6,0.1
	c0.2,0,0.3,0,0.5,0c0.6,0,1.2,0,1.7,0.1c0.5,0,1,0,1.5,0c0.2,0,0.5,0,0.7,0c0.5,0,1,0,1.5,0c0.4,0,0.9,0,1.3,0s0.7,0,1.1,0
	c0.5,0,1,0,1.5,0c0.3,0,0.6,0,0.9,0c0.6,0,1.2,0,1.9,0c0.3,0,0.6,0,1,0c0.1,0,0.2,0,0.3,0c1,0,2.1,0,3.1,0c0.1,0,0.2,0,0.4,0
	c0.2,0,0.4,0,0.6,0c0.6,0,1.1,0,1.7,0s1.2,0,1.8,0c0.2,0,0.4,0,0.6,0c0.1,0,0.2,0,0.3,0c0.8,0,1.6,0,2.5,0c0.4,0,0.8,0,1.2,0
	c0.2,0,0.3,0,0.5,0s0.3,0,0.5,0c0.7,0,1.5,0,2.3,0c0.5,0,1,0,1.5,0c0.2,0,0.5,0,0.7,0c0.7,0,1.4,0,2.1,0c0.5,0,1,0,1.4,0
	c0.1,0,0.3,0,0.4,0s0.2,0,0.3,0c0.7,0,1.4,0,2.1,0c0.5,0,1,0,1.5,0c0.2,0,0.4,0,0.5,0s0.2,0,0.4,0c0.8,0,1.6,0,2.5,0
	c0.3,0,0.6,0,0.9,0s0.5,0,0.8,0s0.6,0,0.9,0c0.4,0,0.8,0,1.2,0c0.9,0,1.8,0,2.7,0c0.3,0,0.5,0,0.8,0c0.4,0,0.8,0,1.1,0
	c0.8,0,1.5,0,2.3-0.1c0.7,0,1.3,0,2,0s1.5,0,2.2-0.1c0.3,0,0.7,0,1,0s0.6,0,1,0c0.7,0,1.4,0,2.1-0.1c0.3,0,0.7,0,1,0s0.7,0,1,0
	c0.5,0,1,0,1.5-0.1c0.3,0,0.6,0,0.9,0c0.5,0,1,0,1.5-0.1c0.3,0,0.7,0,1,0c0.1,0,0.3,0,0.4,0c1,0,2-0.1,3-0.1l0,0c0.1,0,0.1,0,0.2,0
	c0.9,0,1.9-0.1,2.8-0.1c0.1,0,0.2,0,0.3,0c0.5,0,1-0.1,1.5-0.1s1-0.1,1.5-0.1c0.1,0,0.3,0,0.4,0c0.6,0,1.3-0.1,1.9-0.1
	c0.4,0,0.8,0,1.2-0.1c0.1,0,0.2,0,0.3,0c1.3-0.1,2.6-0.2,3.8-0.3h0.1c0.1,0,0.3,0,0.4,0c1.2-0.1,2.3-0.2,3.4-0.3c0.2,0,0.4,0,0.5,0
	c0.2,0,0.4,0,0.5,0c1-0.1,2.1-0.2,3.1-0.3c0.2,0,0.3,0,0.5,0c0.1,0,0.1,0,0.1,0c1.1-0.1,2.2-0.2,3.2-0.3c0.1,0,0.1,0,0.2,0
	c0.2,0,0.4,0,0.6-0.1c0.7-0.1,1.4-0.2,2-0.2c0.1,0,0.3,0,0.4-0.1c0.2,0,0.4,0,0.6-0.1c0.5-0.1,1-0.1,1.5-0.2c0.2,0,0.4,0,0.6-0.1
	c0.2,0,0.3,0,0.4-0.1c0.4-0.1,0.8-0.1,1.3-0.2c0.2,0,0.4-0.1,0.6-0.1c0.1,0,0.2,0,0.3-0.1c0.4-0.1,0.7-0.1,1.1-0.2
	c0.2,0,0.4-0.1,0.6-0.1c0.1,0,0.2,0,0.3-0.1c0.3-0.1,0.6-0.1,0.9-0.2c0.2,0,0.4-0.1,0.6-0.1c0.1,0,0.2,0,0.3-0.1
	c0.3-0.1,0.5-0.1,0.8-0.2c0.2,0,0.4-0.1,0.5-0.1s0.2,0,0.2-0.1c0.2-0.1,0.5-0.1,0.7-0.2c0.2,0,0.3-0.1,0.5-0.1c0.1,0,0.1,0,0.2-0.1
	c0.2-0.1,0.4-0.1,0.6-0.2c0.1,0,0.3-0.1,0.4-0.1s0.1,0,0.2-0.1c0.2-0.1,0.3-0.1,0.5-0.2c0.1,0,0.2-0.1,0.3-0.1
	c0.1,0,0.1-0.1,0.2-0.1c0.2-0.1,0.3-0.1,0.4-0.2c0.1,0,0.2-0.1,0.3-0.1l0.1-0.1c0.1-0.1,0.2-0.1,0.3-0.2c0.1,0,0.1-0.1,0.2-0.1
	c0,0,0,0,0.1-0.1s0.2-0.1,0.2-0.2l0.1-0.1c0,0,0,0,0-0.1c0.1-0.1,0.1-0.2,0.1-0.3v-0.1c0,0,0,0,0-0.1l0,0l0,0v-53.1
	C423.4,264.2,423.4,264.3,423.4,264.3z"/>
<text transform="matrix(1 0 0 1 293.2588 176.902)" class="st5 st6 st7">Servidor 2</text>
<text transform="matrix(1 0 0 1 549.5557 166.4035)" class="st5 st6 st7">Scale-up</text>
<text transform="matrix(1 0 0 1 290.0347 232.089)" class="st3 st6 st8">Instância 2</text>
<line class="st9" x1="534" y1="387.3" x2="534" y2="146.5"/>
<polygon class="st5" points="540,148.2 534,137.9 528,148.2 "/>
</svg>
