<svg version="1.1" xmlns="http://www.w3.org/2000/svg" xmlns:xlink="http://www.w3.org/1999/xlink" x="0px" y="0px" width="1010px"
	 height="520px" viewBox="0 0 1010 520" style="enable-background:new 0 0 1010 520;" xml:space="preserve">
<style type="text/css">
	.st0{fill:#EDEDED;}
	.st1{opacity:0.43;fill:#A8BCCC;enable-background:new    ;}
	.st2{fill:#2982CC;}
	.st3{fill:#17507D;}
	.st4{fill:none;stroke:#A8BCCC;stroke-width:3;stroke-linecap:round;stroke-linejoin:round;stroke-miterlimit:10;}
	.st5{fill:#303030;}
	.st6{font-family:'Arial';}
	.st7{font-size:19px;}
	.st8{fill:none;}
	.st9{font-size:16px;}
	.st10{fill:none;stroke:#D17189;stroke-width:3;stroke-linecap:round;stroke-linejoin:round;}
	.st11{fill:#D17189;}
	.st12{font-family:'Arial';font-weight:bold}
	.st13{fill:none;stroke:#2982CC;stroke-width:2;stroke-miterlimit:10;}
</style>
<rect y="1" class="st0" width="1010" height="520"/>
<path class="st1" d="M933.7,174.7H704.9c-6.1,0-11-5-11-11V64.3c0-6.1,5-11,11-11h228.8c6.1,0,11,5,11,11v99.4
	C944.8,169.8,939.8,174.7,933.7,174.7z"/>
<path class="st1" d="M933.7,307H704.9c-6.1,0-11-5-11-11v-86.4c0-6.1,5-11,11-11h228.8c6.1,0,11,5,11,11V296
	C944.8,302,939.8,307,933.7,307z"/>
<path class="st1" d="M933.7,434H704.9c-6.1,0-11-5-11-11v-82.2c0-6.1,5-11,11-11h228.8c6.1,0,11,5,11,11V423
	C944.8,429.1,939.8,434,933.7,434z"/>
<path class="st1" d="M208.1,177.9H77.8c-8.3,0-15.1-6.8-15.1-15.1V68.3c0-8.3,6.8-15.1,15.1-15.1h130.3c8.3,0,15.1,6.8,15.1,15.1
	v94.5C223.2,171.1,216.4,177.9,208.1,177.9z"/>
<path class="st1" d="M381.8,177.9H251.5c-8.3,0-15.1-6.8-15.1-15.1V68.3c0-8.3,6.8-15.1,15.1-15.1h130.3c8.3,0,15.1,6.8,15.1,15.1
	v94.5C396.9,171.1,390.1,177.9,381.8,177.9z"/>
<path class="st1" d="M555.5,177.9H425.2c-8.3,0-15.1-6.8-15.1-15.1V68.3c0-8.3,6.8-15.1,15.1-15.1h130.3c8.3,0,15.1,6.8,15.1,15.1
	v94.5C570.6,171.1,563.8,177.9,555.5,177.9z"/>
<path class="st1" d="M555.9,438.1H77.4c-8.3,0-15.1-6.8-15.1-15.1v-94.5c0-8.3,6.8-15.1,15.1-15.1h478.5c8.3,0,15.1,6.8,15.1,15.1
	V423C571,431.3,564.2,438.1,555.9,438.1z"/>
<ellipse class="st2" cx="312.6" cy="353.4" rx="86.9" ry="7.6"/>
<path class="st3" d="M399.5,353.5c0,0.1-0.1,0.2-0.1,0.3c0,0.1-0.1,0.1-0.1,0.2c-0.1,0.1-0.1,0.2-0.2,0.2c-0.1,0.1-0.2,0.1-0.3,0.2
	c-0.1,0.1-0.2,0.1-0.3,0.2c-0.1,0.1-0.2,0.1-0.4,0.2c-0.1,0.1-0.3,0.1-0.4,0.2c-0.2,0.1-0.3,0.1-0.5,0.2s-0.3,0.1-0.5,0.2
	s-0.4,0.1-0.6,0.2s-0.4,0.1-0.6,0.2s-0.5,0.1-0.7,0.2s-0.4,0.1-0.7,0.2c-0.3,0.1-0.5,0.1-0.8,0.2s-0.5,0.1-0.8,0.2s-0.6,0.1-0.9,0.2
	s-0.6,0.1-0.9,0.2s-0.6,0.1-0.9,0.2c-0.4,0.1-0.7,0.1-1.1,0.2c-0.3,0-0.6,0.1-1,0.1c-0.4,0.1-0.8,0.1-1.3,0.2c-0.3,0-0.7,0.1-1,0.1
	c-0.5,0.1-1,0.1-1.5,0.2c-0.3,0-0.7,0.1-1,0.1c-0.7,0.1-1.3,0.2-2,0.2c-0.3,0-0.6,0.1-0.8,0.1c-1,0.1-2.1,0.2-3.2,0.3
	c-0.2,0-0.4,0-0.6,0.1c-1,0.1-2,0.2-3.1,0.3c-0.4,0-0.7,0.1-1.1,0.1c-1.1,0.1-2.3,0.2-3.4,0.3c-0.2,0-0.3,0-0.5,0
	c-1.3,0.1-2.5,0.2-3.8,0.3c-0.5,0-1,0.1-1.5,0.1c-0.6,0-1.3,0.1-1.9,0.1s-1.3,0.1-1.9,0.1c-0.5,0-1,0.1-1.5,0.1
	c-1,0.1-2.1,0.1-3.1,0.2c-0.1,0-0.1,0-0.2,0c-1.1,0.1-2.3,0.1-3.4,0.2c-0.3,0-0.7,0-1,0c-0.8,0-1.6,0.1-2.4,0.1c-0.5,0-1,0-1.5,0.1
	c-0.7,0-1.4,0-2.1,0.1c-0.7,0-1.4,0-2.1,0.1c-0.6,0-1.3,0-1.9,0.1c-0.8,0-1.5,0-2.3,0.1c-0.6,0-1.3,0-2,0c-0.8,0-1.5,0-2.3,0.1
	c-0.6,0-1.3,0-1.9,0c-0.9,0-1.8,0-2.7,0c-0.7,0-1.4,0-2.2,0c-0.3,0-0.5,0-0.8,0c-1.2,0-2.5,0-3.8,0c-0.2,0-0.4,0-0.5,0
	c-1.3,0-2.6,0-3.9,0c-0.1,0-0.3,0-0.4,0c-1.4,0-2.8,0-4.2,0c-1.4,0-2.9,0-4.3,0c-0.2,0-0.3,0-0.5,0c-1.3,0-2.6,0-3.9,0
	c-0.2,0-0.4,0-0.6,0c-1.2,0-2.4,0-3.5,0c-0.2,0-0.4,0-0.6,0c-1.3,0-2.6,0-3.8-0.1c-0.3,0-0.6,0-1,0c-0.9,0-1.9,0-2.8-0.1
	c-0.5,0-1,0-1.5,0c-0.8,0-1.6,0-2.4-0.1c-0.5,0-1,0-1.6,0c-0.7,0-1.4,0-2.2-0.1c-0.6,0-1.2,0-1.8-0.1c-0.7,0-1.4,0-2.1-0.1
	c-0.6,0-1.2,0-1.7-0.1c-0.7,0-1.3-0.1-1.9-0.1s-1.3-0.1-1.9-0.1s-1.2-0.1-1.8-0.1c-0.7,0-1.4-0.1-2-0.1c-0.5,0-1.1-0.1-1.6-0.1
	c-0.7,0-1.4-0.1-2.1-0.1c-0.5,0-1-0.1-1.5-0.1c-0.8,0-1.6-0.1-2.3-0.1c-0.5,0-1-0.1-1.4-0.1c-0.9-0.1-1.7-0.1-2.5-0.2
	c-0.4,0-0.8-0.1-1.2-0.1c-1.3-0.1-2.6-0.2-3.8-0.3c-0.9-0.1-1.8-0.1-2.7-0.2c-0.3,0-0.5,0-0.8-0.1c-0.6-0.1-1.2-0.1-1.7-0.2
	c-0.5,0-0.9-0.1-1.4-0.1s-0.9-0.1-1.4-0.1c-0.4,0-0.9-0.1-1.3-0.1c-0.5,0-0.9-0.1-1.4-0.2c-0.3,0-0.6-0.1-0.9-0.1
	c-0.5-0.1-1-0.1-1.4-0.2c-0.3,0-0.5-0.1-0.8-0.1c-0.5-0.1-1-0.1-1.5-0.2c-0.2,0-0.4-0.1-0.5-0.1c-0.7-0.1-1.3-0.2-1.9-0.3
	c-0.1,0-0.3,0-0.4-0.1c-0.5-0.1-0.9-0.2-1.4-0.2c-0.2,0-0.4-0.1-0.6-0.1c-0.4-0.1-0.7-0.1-1-0.2c-0.2,0-0.4-0.1-0.6-0.1
	c-0.3-0.1-0.6-0.1-0.9-0.2c-0.2,0-0.3-0.1-0.5-0.1c-0.3-0.1-0.6-0.2-0.9-0.2c-0.1,0-0.3-0.1-0.4-0.1c-0.4-0.1-0.8-0.2-1.1-0.3
	c-0.1,0-0.1,0-0.1-0.1c-0.3-0.1-0.5-0.2-0.8-0.3c-0.1,0-0.2-0.1-0.3-0.1c-0.2-0.1-0.3-0.2-0.5-0.2c-0.1,0-0.2-0.1-0.2-0.1
	c-0.1-0.1-0.2-0.1-0.3-0.2c-0.1,0-0.1-0.1-0.2-0.1c-0.1-0.1-0.2-0.2-0.2-0.2l-0.1-0.1c-0.1-0.1-0.1-0.2-0.1-0.4l0,0l0,0v53.1
	c0,0.1,0,0.2,0.1,0.4l0.1,0.1c0.1,0.1,0.1,0.2,0.2,0.2c0,0,0.1,0.1,0.2,0.1c0.1,0.1,0.2,0.2,0.3,0.2s0.1,0.1,0.2,0.1
	c0.1,0.1,0.3,0.2,0.5,0.2c0.1,0,0.2,0.1,0.3,0.1c0.2,0.1,0.5,0.2,0.8,0.3c0,0,0.1,0,0.1,0.1c0.3,0.1,0.7,0.2,1.1,0.3
	c0.1,0,0.2,0.1,0.4,0.1c0.3,0.1,0.6,0.2,0.9,0.2c0.2,0,0.3,0.1,0.5,0.1c0.3,0.1,0.6,0.1,0.9,0.2c0.2,0,0.4,0.1,0.6,0.1
	c0.3,0.1,0.7,0.1,1.1,0.2c0.2,0,0.4,0.1,0.6,0.1c0.4,0.1,0.9,0.2,1.4,0.2c0.1,0,0.3,0,0.4,0.1c0.6,0.1,1.3,0.2,1.9,0.3
	c0.2,0,0.4,0.1,0.5,0.1c0.5,0.1,1,0.1,1.5,0.2c0.3,0,0.5,0.1,0.8,0.1c0.5,0.1,1,0.1,1.5,0.2c0.3,0,0.6,0.1,0.9,0.1
	c0.2,0,0.4,0,0.6,0.1c0.2,0,0.5,0.1,0.8,0.1c0.4,0,0.9,0.1,1.3,0.1c0.4,0,0.9,0.1,1.4,0.1s0.9,0.1,1.4,0.1c0.2,0,0.4,0,0.6,0.1
	c0.4,0,0.8,0.1,1.1,0.1s0.5,0,0.8,0.1c0.9,0.1,1.8,0.2,2.7,0.2l0,0c1.2,0.1,2.5,0.2,3.8,0.3c0.1,0,0.3,0,0.4,0c0.3,0,0.6,0,0.8,0.1
	c0.8,0.1,1.7,0.1,2.5,0.2c0.3,0,0.5,0,0.7,0s0.5,0,0.7,0c0.8,0,1.5,0.1,2.3,0.1c0.3,0,0.6,0,1,0.1c0.2,0,0.3,0,0.5,0
	c0.7,0,1.4,0.1,2.1,0.1c0.4,0,0.8,0,1.2,0.1c0.1,0,0.3,0,0.4,0c0.7,0,1.3,0.1,2,0.1c0.5,0,0.9,0,1.4,0.1c0.1,0,0.3,0,0.4,0
	c0.6,0,1.2,0.1,1.9,0.1c0.5,0,1,0,1.6,0.1c0.1,0,0.3,0,0.4,0c0.6,0,1.1,0,1.7,0.1c0.5,0,1.1,0,1.6,0.1c0.2,0,0.3,0,0.5,0
	c0.6,0,1.2,0,1.7,0.1c0.5,0,1,0,1.5,0c0.2,0,0.5,0,0.7,0c0.5,0,1,0,1.5,0c0.4,0,0.9,0,1.3,0s0.7,0,1.1,0c0.5,0,1,0,1.5,0
	c0.3,0,0.6,0,0.9,0c0.6,0,1.2,0,1.9,0c0.3,0,0.6,0,1,0c0.1,0,0.2,0,0.3,0c1,0,2.1,0,3.1,0c0.1,0,0.2,0,0.4,0c0.2,0,0.4,0,0.6,0
	c0.6,0,1.1,0,1.7,0s1.2,0,1.8,0c0.2,0,0.4,0,0.6,0c0.1,0,0.2,0,0.3,0c0.8,0,1.6,0,2.5,0c0.4,0,0.8,0,1.2,0c0.2,0,0.3,0,0.5,0
	s0.3,0,0.5,0c0.7,0,1.5,0,2.3,0c0.5,0,1,0,1.5,0c0.2,0,0.5,0,0.7,0c0.7,0,1.4,0,2.1,0c0.5,0,1,0,1.4,0c0.1,0,0.3,0,0.4,0
	s0.2,0,0.3,0c0.7,0,1.4,0,2.1,0c0.5,0,1,0,1.5,0c0.2,0,0.4,0,0.5,0s0.2,0,0.4,0c0.8,0,1.6,0,2.5,0c0.3,0,0.6,0,0.9,0s0.5,0,0.8,0
	s0.6,0,0.9,0c0.4,0,0.8,0,1.2,0c0.9,0,1.8,0,2.7,0c0.3,0,0.5,0,0.8,0c0.4,0,0.8,0,1.1,0c0.8,0,1.5,0,2.3-0.1c0.7,0,1.3,0,2,0
	s1.5,0,2.2-0.1c0.3,0,0.7,0,1,0s0.6,0,1,0c0.7,0,1.4,0,2.1-0.1c0.3,0,0.7,0,1,0s0.7,0,1,0c0.5,0,1,0,1.5-0.1c0.3,0,0.6,0,0.9,0
	c0.5,0,1,0,1.5-0.1c0.3,0,0.7,0,1,0c0.1,0,0.3,0,0.4,0c1,0,2-0.1,3-0.1l0,0c0.1,0,0.1,0,0.2,0c0.9,0,1.9-0.1,2.8-0.1
	c0.1,0,0.2,0,0.3,0c0.5,0,1-0.1,1.5-0.1s1-0.1,1.5-0.1c0.1,0,0.3,0,0.4,0c0.6,0,1.3-0.1,1.9-0.1c0.4,0,0.8,0,1.2-0.1
	c0.1,0,0.2,0,0.3,0c1.3-0.1,2.6-0.2,3.8-0.3h0.1c0.1,0,0.3,0,0.4,0c1.2-0.1,2.3-0.2,3.4-0.3c0.2,0,0.4,0,0.5,0c0.2,0,0.4,0,0.5,0
	c1-0.1,2.1-0.2,3.1-0.3c0.2,0,0.3,0,0.5,0c0.1,0,0.1,0,0.1,0c1.1-0.1,2.2-0.2,3.2-0.3c0.1,0,0.1,0,0.2,0c0.2,0,0.4,0,0.6-0.1
	c0.7-0.1,1.4-0.2,2-0.2c0.1,0,0.3,0,0.4-0.1c0.2,0,0.4,0,0.6-0.1c0.5-0.1,1-0.1,1.5-0.2c0.2,0,0.4,0,0.6-0.1c0.2,0,0.3,0,0.4-0.1
	c0.4-0.1,0.8-0.1,1.3-0.2c0.2,0,0.4-0.1,0.6-0.1c0.1,0,0.2,0,0.3-0.1c0.4-0.1,0.7-0.1,1.1-0.2c0.2,0,0.4-0.1,0.6-0.1
	c0.1,0,0.2,0,0.3-0.1c0.3-0.1,0.6-0.1,0.9-0.2c0.2,0,0.4-0.1,0.6-0.1c0.1,0,0.2,0,0.3-0.1c0.3-0.1,0.5-0.1,0.8-0.2
	c0.2,0,0.4-0.1,0.5-0.1s0.2,0,0.2-0.1c0.2-0.1,0.5-0.1,0.7-0.2c0.2,0,0.3-0.1,0.5-0.1c0.1,0,0.1,0,0.2-0.1c0.2-0.1,0.4-0.1,0.6-0.2
	c0.1,0,0.3-0.1,0.4-0.1s0.1,0,0.2-0.1c0.2-0.1,0.3-0.1,0.5-0.2c0.1,0,0.2-0.1,0.3-0.1c0.1,0,0.1-0.1,0.2-0.1
	c0.2-0.1,0.3-0.1,0.4-0.2c0.1,0,0.2-0.1,0.3-0.1l0.1-0.1c0.1-0.1,0.2-0.1,0.3-0.2c0.1,0,0.1-0.1,0.2-0.1c0,0,0,0,0.1-0.1
	s0.2-0.1,0.2-0.2l0.1-0.1c0,0,0,0,0-0.1c0.1-0.1,0.1-0.2,0.1-0.3v-0.1c0,0,0,0,0-0.1l0,0l0,0v-53.1
	C399.5,353.4,399.5,353.5,399.5,353.5z"/>
<line class="st4" x1="148.5" y1="157.4" x2="313" y2="349.3"/>
<line class="st4" x1="313" y1="349.3" x2="486.7" y2="158.5"/>
<line class="st4" x1="312.6" y1="158.4" x2="312.6" y2="349.3"/>
<text transform="matrix(1 0 0 1 80.3196 341.9267)" class="st5 st6 st7">Storage</text>
<text transform="matrix(1 0 0 1 96.7874 91.0791)" class="st5 st6 st7">Servidor 1</text>
<text transform="matrix(1 0 0 1 274.2008 91.0791)" class="st5 st6 st7">Servidor 2</text>
<text transform="matrix(1 0 0 1 439.2599 91.0791)" class="st5 st6 st7">Servidor 3</text>
<rect x="713.8" y="77.7" class="st8" width="202" height="111"/>
<text transform="matrix(1 0 0 1 713.8218 89.4213)" class="st5 st6 st9">Necessário uso de Lavers</text>
<text transform="matrix(1 0 0 1 713.8218 119.8213)" class="st5 st6 st9">Compartilhados</text>
<text transform="matrix(1 0 0 1 713.8218 150.2213)" class="st5 st6 st9">(ex.: Memória/Processos)</text>
<rect x="713.8" y="223" class="st8" width="202" height="70"/>
<text transform="matrix(1 0 0 1 713.8218 234.681)" class="st5 st6 st9">Adicionar rede SAN</text>
<text transform="matrix(1 0 0 1 713.8218 265.081)" class="st5 st6 st9">Novo Procolo Fiber</text>
<text transform="matrix(1 0 0 1 713.8218 280.281)" class="st5 st6 st9">Channel + Custos</text>
<rect x="713.8" y="358.2" class="st8" width="202" height="55.5"/>
<text transform="matrix(1 0 0 1 713.8218 369.9405)" class="st5 st6 st9">Storage</text>
<text transform="matrix(1 0 0 1 713.8218 389.1405)" class="st5 st6 st9">(armazenamento),</text>
<text transform="matrix(1 0 0 1 713.8218 408.3405)" class="st5 st6 st9">centralizado.</text>
<line class="st10" x1="575.7" y1="123.2" x2="671.8" y2="123.2"/>
<polygon class="st11" points="669.6,130.9 682.8,123.2 669.6,115.6 "/>
<line class="st10" x1="409.5" y1="255.2" x2="671.8" y2="255.2"/>
<polygon class="st11" points="669.6,262.9 682.8,255.2 669.6,247.6 "/>
<line class="st10" x1="407" y1="381.9" x2="671.8" y2="381.9"/>
<polygon class="st11" points="669.6,389.5 682.8,381.9 669.6,374.3 "/>
<text transform="matrix(1 0 0 1 99.0471 136.5728)" class="st2 st12 st9">Instância 1</text>
<path class="st13" d="M193.3,157.4H92.6c-5.6,0-10.2-4.6-10.2-10.2V116c0-5.6,4.6-10.2,10.2-10.2h100.7c5.6,0,10.2,4.6,10.2,10.2
	v31.2C203.4,152.8,198.9,157.4,193.3,157.4z"/>
<text transform="matrix(1 0 0 1 268.4579 136.5728)" class="st2 st12 st9">Instância 2</text>
<path class="st13" d="M364.3,157.4H263.6c-5.6,0-10.2-4.6-10.2-10.2V116c0-5.6,4.6-10.2,10.2-10.2h100.7c5.6,0,10.2,4.6,10.2,10.2
	v31.2C374.5,152.8,369.9,157.4,364.3,157.4z"/>
<text transform="matrix(1 0 0 1 442.9274 136.5728)" class="st2 st12 st9">Instância 3</text>
<path class="st13" d="M538.7,157.4H438.1c-5.6,0-10.2-4.6-10.2-10.2V116c0-5.6,4.6-10.2,10.2-10.2h100.7c5.6,0,10.2,4.6,10.2,10.2
	v31.2C548.9,152.8,544.3,157.4,538.7,157.4z"/>
</svg>
