<?xml version="1.0" encoding="utf-8"?>
<!-- Generator: Adobe Illustrator 21.0.0, SVG Export Plug-In . SVG Version: 6.00 Build 0)  -->
<svg version="1.1" xmlns="http://www.w3.org/2000/svg" xmlns:xlink="http://www.w3.org/1999/xlink" x="0px" y="0px" width="800px"
	 height="520px" viewBox="0 0 800 520" style="enable-background:new 0 0 800 520;" xml:space="preserve">
<style type="text/css">
	.st0{fill:#EDEDED;}
	.st1{fill:#303030;}
	.st2{font-family:'Arial';font-weight:bold;font-style: italic;}
	.st3{font-size:24.1056px;}
	.st4{fill:#477BAC;}
	.st5{fill:#424242;}
	.st6{fill:#B2B2B2;}
	.st7{fill:#FFFFFF;}
	.st8{font-family:'Arial';}
	.st9{font-size:14px;}
</style>
<rect class="st0" width="800" height="520"/>
<text transform="matrix(1 0 0 1 331.9189 266.6748)" class="st1 st2 st3">The Nexus</text>
<path class="st4" d="M412.9,153.8c48.1,5.8,86.5,43.7,93,91.6c0.6,4.3,4.3,7.5,8.7,7.5h75.3c5.1,0,9.2-4.3,8.8-9.4
	c-3.8-47-24-90.8-57.7-124.5c-34.2-34.2-78.6-54.4-126.3-57.9c-5.1-0.4-9.4,3.7-9.4,8.8v75.2C405.3,149.5,408.5,153.3,412.9,153.8z"
	/>
<path class="st5" d="M294,245.4c6.5-47.9,44.9-85.8,93-91.6c4.4-0.5,7.7-4.3,7.7-8.7V69.9c0-5.1-4.3-9.2-9.4-8.8
	C337.6,64.5,293.1,84.8,259,119c-33.7,33.7-53.9,77.5-57.7,124.5c-0.4,5.1,3.7,9.4,8.8,9.4h75.3C289.7,253,293.4,249.8,294,245.4z"
	/>
<path class="st6" d="M387,366.2c-49.2-6-88.2-45.5-93.4-94.9c-0.5-4.4-4.3-7.8-8.7-7.8h-75.1c-5.1,0-9.1,4.3-8.8,9.3
	c3.1,48.4,23.4,93.5,58,128.2c34.2,34.2,78.6,54.4,126.3,57.9c5.1,0.4,9.4-3.7,9.4-8.8V375C394.7,370.5,391.4,366.7,387,366.2z"/>
<path class="st7" d="M506.4,271.3c-5.2,49.4-44.2,88.9-93.4,94.9c-4.4,0.5-7.7,4.4-7.7,8.8v75.1c0,5.1,4.3,9.2,9.4,8.8
	c47.7-3.4,92.2-23.7,126.3-57.9c34.6-34.6,54.9-79.7,58-128.2c0.3-5-3.7-9.3-8.8-9.3h-75.1C510.6,263.5,506.8,266.9,506.4,271.3z"/>
<text transform="matrix(1 0 0 1 261.5547 150)" class="st0 st8 st9">SOCIAL</text>
<text transform="matrix(1 0 0 1 251.8547 169.6)" class="st0 st8 st9">NETWORK</text>
<text transform="matrix(1 0 0 1 485.1133 150)" class="st0 st8 st9">CLOUD</text>
<text transform="matrix(1 0 0 1 467.2133 169.6)" class="st0 st8 st9">COMPUTING</text>
<text transform="matrix(1 0 0 1 481.1689 361.2094)" class="st5 st8 st9">BIG DATA</text>
<text transform="matrix(1 0 0 1 254.7793 361.2094)" class="st5 st8 st9">MOBILE</text>
</svg>
