<?xml version="1.0" encoding="utf-8"?>
<!-- Generator: Adobe Illustrator 21.0.0, SVG Export Plug-In . SVG Version: 6.00 Build 0)  -->
<svg version="1.1" id="Layer_1" xmlns="http://www.w3.org/2000/svg" xmlns:xlink="http://www.w3.org/1999/xlink" x="0px" y="0px"
	 width="800px" height="520px" viewBox="0 0 800 520" style="enable-background:new 0 0 800 520;" xml:space="preserve">
<style type="text/css">
	.st0{fill:#FFFFFF;}
	.st1{fill:#C9C9C9;}
	.st2{fill:#989898;}
	.st3{fill:#477BAC;}
	.st4{fill:#75A9D3;}
	.st5{fill:none;stroke:#303030;stroke-width:25;stroke-miterlimit:10;}
	.st6{fill:#303030;}
	.st7{font-family:'Arial';font-weight:bold}
	.st8{font-size:22px;}
	.st9{letter-spacing:-1;}
	.st10{fill:#EDEDED;}
	.st11{font-size:12px;}
	.st12{font-family:'Arial';}
	.st13{font-size:14px;}
</style>
<title>vetores-direito-digital</title>
<g id="Layer_3">
	<rect class="st0" width="800" height="520"/>
</g>
<g id="Layer_4">
	<g>
		<path class="st1" d="M269.5,60.2h331c6.6,0,12,5.4,12,12v331c0,6.6-5.4,12-12,12h-331c-6.6,0-12-5.4-12-12v-331
			C257.5,65.6,262.9,60.2,269.5,60.2z"/>
		<path class="st2" d="M269.5,133.6h257.7c6.6,0,12,5.4,12,12v257.6c0,6.6-5.4,12-12,12H269.5c-6.6,0-12-5.4-12-12V145.6
			C257.5,139,262.9,133.6,269.5,133.6z"/>
		<path class="st3" d="M269.5,203.1h188.1c6.6,0,12,5.4,12,12v188.1c0,6.6-5.4,12-12,12H269.5c-6.6,0-12-5.4-12-12V215.1
			C257.5,208.5,262.9,203.1,269.5,203.1z"/>
		<path class="st4" d="M269.5,274.4h116.8c6.6,0,12,5.4,12,12v116.8c0,6.6-5.4,12-12,12H269.5c-6.6,0-12-5.4-12-12V286.4
			C257.5,279.8,262.9,274.4,269.5,274.4z"/>
		<g>
			<line class="st5" x1="147.5" y1="416.7" x2="147.5" y2="76"/>
			<polygon class="st6" points="129.3,78.5 165.7,78.5 147.5,60.2 			"/>
		</g>
		<g>
			<line class="st5" x1="596.7" y1="451.2" x2="259.5" y2="451.2"/>
			<polygon class="st6" points="594.3,469.5 594.3,433 612.5,451.2 			"/>
		</g>
		<text transform="matrix(1 0 0 1 205.5 352.04)" class="st6 st7 st8">MB</text>
		<text transform="matrix(1 0 0 1 207.35 251.04)" class="st6 st7 st8">GB</text>
		<text transform="matrix(1 0 0 1 210.33 180.04)" class="st6 st7 st8">TB</text>
		<text transform="matrix(1 0 0 1 209.89 113.04)" class="st6 st7 st8">PB</text>
		<text transform="matrix(1 0 0 1 300.5 352.04)" class="st7 st8">ERP</text>
		<text transform="matrix(1 0 0 1 398.33 237.74)" class="st7 st8">CRM</text>
		<text transform="matrix(1 0 0 1 462.5 172.22)" class="st7 st8">WEB</text>
		<text transform="matrix(1 0 0 1 480 100.22)" class="st7 st8">BIG </text>
		<text transform="matrix(1 0 0 1 527.1 100.22)" class="st7 st8 st9">D</text>
		<text transform="matrix(1 0 0 1 543.21 100.22)" class="st7 st8 st9">AT</text>
		<text transform="matrix(1 0 0 1 570.88 100.22)" class="st7 st8">A</text>
		<text transform="matrix(1 0 0 1 304.5 455.24)" class="st10 st7 st11">V</text>
		<text transform="matrix(1 0 0 1 312.32 455.24)" class="st10 st7 st11">ariedade / Complexidade / </text>
		<text transform="matrix(1 0 0 1 476.18 455.24)" class="st10 st7 st11">V</text>
		<text transform="matrix(1 0 0 1 484.01 455.24)" class="st10 st7 st11">elocidade</text>
		<text transform="matrix(1 0 0 1 186.2 125.83)" class="st12 st13">petabyte</text>
		<text transform="matrix(1 0 0 1 191.38 195.83)" class="st12 st13">terabyte</text>
		<text transform="matrix(1 0 0 1 186.17 265.83)" class="st12 st13">gigabyte</text>
		<text transform="matrix(1 0 0 1 178.54 365.83)" class="st12 st13">megabyte</text>
	</g>
</g>
</svg>
